<svg xmlns="http://www.w3.org/2000/svg" width="800" height="800" viewBox="0 0 512 512"><defs><linearGradient id="a" x1="50%" x2="50%" y1="0%" y2="100%"><stop offset="0%" stop-color="#FA233B"/><stop offset="100%" stop-color="#FB5C74"/></linearGradient></defs><rect width="512" height="512" fill="url(#a)" rx="112"/><path fill="#FFF" d="M356 160.3v155.4c0 24.3-14.2 44-37.4 51.5-9.7 3.1-19.9 4-29.7 2.3-19.6-3.4-33.2-17.3-34.8-36.1-1.7-20.5 10.5-38.3 30.2-44.1 10.1-3 20.6-3.7 31.1-2.4 3.4.4 6.8 1.2 10.6 1.9V199l-120 28.3v143.9c0 4.3-.4 8.5-1.3 12.7-4 19.1-15.7 31.7-34.5 37.2-9.5 2.8-19.3 3.5-29.1 1.8-19.9-3.5-33.6-17.6-35.1-36.7-1.6-20.2 10.7-38 30.3-43.7 10.1-3 20.5-3.6 31-2.3 3.2.4 6.3 1.1 9.7 1.7V195.3c0-9.3 2.6-14.6 11.2-17.7l137.8-39.7c2.2-.6 4.5-1 6.8-1.2 8-.6 13.2 4 13.2 12.1v11.5z"/></svg>